<?xml version="1.0" encoding="UTF-8"?><svg xmlns="http://www.w3.org/2000/svg" width="720" height="240" viewBox="0 0 720 240"><defs><style>.h{font:700 16px ui-monospace,monospace;fill:#ff63c8}.m{font:11px ui-monospace,monospace;fill:#c7a5d3}</style></defs><rect width="720" height="240" rx="24" fill="#09020f" stroke="#ff3cac" stroke-opacity=".6"/><text x="30" y="35" class="h">CONTRIBUTION ACTIVITY</text><text x="30" y="55" class="m">Local visual snapshot Â· refreshed from GitHub profile (2026)</text><rect x="35" y="80" width="9" height="14" rx="3" fill="#ff3cac" opacity="0.08"/><rect x="47" y="80" width="9" height="14" rx="3" fill="#ff3cac" opacity="0.22"/><rect x="59" y="80" width="9" height="14" rx="3" fill="#ff3cac" opacity="0.58"/><rect x="71" y="80" width="9" height="14" rx="3" fill="#ff3cac" opacity="0.82"/><rect x="83" y="80" width="9" height="14" rx="3" fill="#ff3cac" opacity="0.58"/><rect x="95" y="80" width="9" height="14" rx="3" fill="#ff3cac" opacity="0.08"/><rect x="107" y="80" width="9" height="14" rx="3" fill="#ff3cac" opacity="0.38"/><rect x="119" y="80" width="9" height="14" rx="3" fill="#ff3cac" opacity="0.58"/><rect x="131" y="80" width="9" height="14" rx="3" fill="#ff3cac" opacity="0.38"/><rect x="143" y="80" width="9" height="14" rx="3" fill="#ff3cac" opacity="0.08"/><rect x="155" y="80" width="9" height="14" rx="3" fill="#ff3cac" opacity="0.22"/><rect x="167" y="80" width="9" height="14" rx="3" fill="#ff3cac" opacity="0.08"/><rect x="179" y="80" width="9" height="14" rx="3" fill="#ff3cac" opacity="0.22"/><rect x="191" y="80" width="9" height="14" rx="3" fill="#ff3cac" opacity="0.38"/><rect x="203" y="80" width="9" height="14" rx="3" fill="#ff3cac" opacity="0.08"/><rect x="215" y="80" width="9" height="14" rx="3" fill="#ff3cac" opacity="0.22"/><rect x="227" y="80" width="9" height="14" rx="3" fill="#ff3cac" opacity="0.08"/><rect x="239" y="80" width="9" height="14" rx="3" fill="#ff3cac" opacity="0.08"/><rect x="251" y="80" width="9" height="14" rx="3" fill="#ff3cac" opacity="0.08"/><rect x="263" y="80" width="9" height="14" rx="3" fill="#ff3cac" opacity="0.58"/><rect x="275" y="80" width="9" height="14" rx="3" fill="#ff3cac" opacity="0.08"/><rect x="287" y="80" width="9" height="14" rx="3" fill="#ff3cac" opacity="0.82"/><rect x="299" y="80" width="9" height="14" rx="3" fill="#ff3cac" opacity="0.22"/><rect x="311" y="80" width="9" height="14" rx="3" fill="#ff3cac" opacity="0.38"/><rect x="323" y="80" width="9" height="14" rx="3" fill="#ff3cac" opacity="0.08"/><rect x="335" y="80" width="9" height="14" rx="3" fill="#ff3cac" opacity="0.08"/><rect x="347" y="80" width="9" height="14" rx="3" fill="#ff3cac" opacity="0.58"/><rect x="359" y="80" width="9" height="14" rx="3" fill="#ff3cac" opacity="0.08"/><rect x="371" y="80" width="9" height="14" rx="3" fill="#ff3cac" opacity="0.08"/><rect x="383" y="80" width="9" height="14" rx="3" fill="#ff3cac" opacity="0.58"/><rect x="395" y="80" width="9" height="14" rx="3" fill="#ff3cac" opacity="0.08"/><rect x="407" y="80" width="9" height="14" rx="3" fill="#ff3cac" opacity="0.08"/><rect x="419" y="80" width="9" height="14" rx="3" fill="#ff3cac" opacity="0.08"/><rect x="431" y="80" width="9" height="14" rx="3" fill="#ff3cac" opacity="0.58"/><rect x="443" y="80" width="9" height="14" rx="3" fill="#ff3cac" opacity="0.08"/><rect x="455" y="80" width="9" height="14" rx="3" fill="#ff3cac" opacity="0.38"/><rect x="467" y="80" width="9" height="14" rx="3" fill="#ff3cac" opacity="0.22"/><rect x="479" y="80" width="9" height="14" rx="3" fill="#ff3cac" opacity="0.08"/><rect x="491" y="80" width="9" height="14" rx="3" fill="#ff3cac" opacity="0.08"/><rect x="503" y="80" width="9" height="14" rx="3" fill="#ff3cac" opacity="0.08"/><rect x="515" y="80" width="9" height="14" rx="3" fill="#ff3cac" opacity="0.58"/><rect x="527" y="80" width="9" height="14" rx="3" fill="#ff3cac" opacity="0.38"/><rect x="539" y="80" width="9" height="14" rx="3" fill="#ff3cac" opacity="0.08"/><rect x="551" y="80" width="9" height="14" rx="3" fill="#ff3cac" opacity="0.38"/><rect x="563" y="80" width="9" height="14" rx="3" fill="#ff3cac" opacity="0.08"/><rect x="575" y="80" width="9" height="14" rx="3" fill="#ff3cac" opacity="0.58"/><rect x="587" y="80" width="9" height="14" rx="3" fill="#ff3cac" opacity="0.08"/><rect x="599" y="80" width="9" height="14" rx="3" fill="#ff3cac" opacity="0.08"/><rect x="611" y="80" width="9" height="14" rx="3" fill="#ff3cac" opacity="0.08"/><rect x="623" y="80" width="9" height="14" rx="3" fill="#ff3cac" opacity="0.82"/><rect x="635" y="80" width="9" height="14" rx="3" fill="#ff3cac" opacity="0.58"/><rect x="647" y="80" width="9" height="14" rx="3" fill="#ff3cac" opacity="0.38"/><rect x="35" y="98" width="9" height="14" rx="3" fill="#ff3cac" opacity="0.08"/><rect x="47" y="98" width="9" height="14" rx="3" fill="#ff3cac" opacity="0.08"/><rect x="59" y="98" width="9" height="14" rx="3" fill="#ff3cac" opacity="0.08"/><rect x="71" y="98" width="9" height="14" rx="3" fill="#ff3cac" opacity="0.08"/><rect x="83" y="98" width="9" height="14" rx="3" fill="#ff3cac" opacity="0.82"/><rect x="95" y="98" width="9" height="14" rx="3" fill="#ff3cac" opacity="0.08"/><rect x="107" y="98" width="9" height="14" rx="3" fill="#ff3cac" opacity="0.38"/><rect x="119" y="98" width="9" height="14" rx="3" fill="#ff3cac" opacity="0.22"/><rect x="131" y="98" width="9" height="14" rx="3" fill="#ff3cac" opacity="0.08"/><rect x="143" y="98" width="9" height="14" rx="3" fill="#ff3cac" opacity="0.08"/><rect x="155" y="98" width="9" height="14" rx="3" fill="#ff3cac" opacity="0.08"/><rect x="167" y="98" width="9" height="14" rx="3" fill="#ff3cac" opacity="0.82"/><rect x="179" y="98" width="9" height="14" rx="3" fill="#ff3cac" opacity="0.08"/><rect x="191" y="98" width="9" height="14" rx="3" fill="#ff3cac" opacity="0.58"/><rect x="203" y="98" width="9" height="14" rx="3" fill="#ff3cac" opacity="0.08"/><rect x="215" y="98" width="9" height="14" rx="3" fill="#ff3cac" opacity="0.22"/><rect x="227" y="98" width="9" height="14" rx="3" fill="#ff3cac" opacity="0.08"/><rect x="239" y="98" width="9" height="14" rx="3" fill="#ff3cac" opacity="0.08"/><rect x="251" y="98" width="9" height="14" rx="3" fill="#ff3cac" opacity="0.08"/><rect x="263" y="98" width="9" height="14" rx="3" fill="#ff3cac" opacity="0.22"/><rect x="275" y="98" width="9" height="14" rx="3" fill="#ff3cac" opacity="0.58"/><rect x="287" y="98" width="9" height="14" rx="3" fill="#ff3cac" opacity="0.08"/><rect x="299" y="98" width="9" height="14" rx="3" fill="#ff3cac" opacity="0.58"/><rect x="311" y="98" width="9" height="14" rx="3" fill="#ff3cac" opacity="0.08"/><rect x="323" y="98" width="9" height="14" rx="3" fill="#ff3cac" opacity="0.08"/><rect x="335" y="98" width="9" height="14" rx="3" fill="#ff3cac" opacity="0.58"/><rect x="347" y="98" width="9" height="14" rx="3" fill="#ff3cac" opacity="0.38"/><rect x="359" y="98" width="9" height="14" rx="3" fill="#ff3cac" opacity="0.08"/><rect x="371" y="98" width="9" height="14" rx="3" fill="#ff3cac" opacity="0.82"/><rect x="383" y="98" width="9" height="14" rx="3" fill="#ff3cac" opacity="0.22"/><rect x="395" y="98" width="9" height="14" rx="3" fill="#ff3cac" opacity="0.38"/><rect x="407" y="98" width="9" height="14" rx="3" fill="#ff3cac" opacity="0.08"/><rect x="419" y="98" width="9" height="14" rx="3" fill="#ff3cac" opacity="0.82"/><rect x="431" y="98" width="9" height="14" rx="3" fill="#ff3cac" opacity="0.22"/><rect x="443" y="98" width="9" height="14" rx="3" fill="#ff3cac" opacity="0.08"/><rect x="455" y="98" width="9" height="14" rx="3" fill="#ff3cac" opacity="0.58"/><rect x="467" y="98" width="9" height="14" rx="3" fill="#ff3cac" opacity="0.58"/><rect x="479" y="98" width="9" height="14" rx="3" fill="#ff3cac" opacity="0.08"/><rect x="491" y="98" width="9" height="14" rx="3" fill="#ff3cac" opacity="0.08"/><rect x="503" y="98" width="9" height="14" rx="3" fill="#ff3cac" opacity="0.08"/><rect x="515" y="98" width="9" height="14" rx="3" fill="#ff3cac" opacity="0.22"/><rect x="527" y="98" width="9" height="14" rx="3" fill="#ff3cac" opacity="0.82"/><rect x="539" y="98" width="9" height="14" rx="3" fill="#ff3cac" opacity="0.08"/><rect x="551" y="98" width="9" height="14" rx="3" fill="#ff3cac" opacity="0.08"/><rect x="563" y="98" width="9" height="14" rx="3" fill="#ff3cac" opacity="0.22"/><rect x="575" y="98" width="9" height="14" rx="3" fill="#ff3cac" opacity="0.08"/><rect x="587" y="98" width="9" height="14" rx="3" fill="#ff3cac" opacity="0.22"/><rect x="599" y="98" width="9" height="14" rx="3" fill="#ff3cac" opacity="0.08"/><rect x="611" y="98" width="9" height="14" rx="3" fill="#ff3cac" opacity="0.58"/><rect x="623" y="98" width="9" height="14" rx="3" fill="#ff3cac" opacity="0.82"/><rect x="635" y="98" width="9" height="14" rx="3" fill="#ff3cac" opacity="0.38"/><rect x="647" y="98" width="9" height="14" rx="3" fill="#ff3cac" opacity="0.08"/><rect x="35" y="116" width="9" height="14" rx="3" fill="#ff3cac" opacity="0.82"/><rect x="47" y="116" width="9" height="14" rx="3" fill="#ff3cac" opacity="0.08"/><rect x="59" y="116" width="9" height="14" rx="3" fill="#ff3cac" opacity="0.08"/><rect x="71" y="116" width="9" height="14" rx="3" fill="#ff3cac" opacity="0.58"/><rect x="83" y="116" width="9" height="14" rx="3" fill="#ff3cac" opacity="0.22"/><rect x="95" y="116" width="9" height="14" rx="3" fill="#ff3cac" opacity="0.22"/><rect x="107" y="116" width="9" height="14" rx="3" fill="#ff3cac" opacity="0.38"/><rect x="119" y="116" width="9" height="14" rx="3" fill="#ff3cac" opacity="0.08"/><rect x="131" y="116" width="9" height="14" rx="3" fill="#ff3cac" opacity="0.08"/><rect x="143" y="116" width="9" height="14" rx="3" fill="#ff3cac" opacity="0.08"/><rect x="155" y="116" width="9" height="14" rx="3" fill="#ff3cac" opacity="0.22"/><rect x="167" y="116" width="9" height="14" rx="3" fill="#ff3cac" opacity="0.38"/><rect x="179" y="116" width="9" height="14" rx="3" fill="#ff3cac" opacity="0.38"/><rect x="191" y="116" width="9" height="14" rx="3" fill="#ff3cac" opacity="0.38"/><rect x="203" y="116" width="9" height="14" rx="3" fill="#ff3cac" opacity="0.58"/><rect x="215" y="116" width="9" height="14" rx="3" fill="#ff3cac" opacity="0.38"/><rect x="227" y="116" width="9" height="14" rx="3" fill="#ff3cac" opacity="0.08"/><rect x="239" y="116" width="9" height="14" rx="3" fill="#ff3cac" opacity="0.22"/><rect x="251" y="116" width="9" height="14" rx="3" fill="#ff3cac" opacity="0.38"/><rect x="263" y="116" width="9" height="14" rx="3" fill="#ff3cac" opacity="0.38"/><rect x="275" y="116" width="9" height="14" rx="3" fill="#ff3cac" opacity="0.58"/><rect x="287" y="116" width="9" height="14" rx="3" fill="#ff3cac" opacity="0.58"/><rect x="299" y="116" width="9" height="14" rx="3" fill="#ff3cac" opacity="0.08"/><rect x="311" y="116" width="9" height="14" rx="3" fill="#ff3cac" opacity="0.22"/><rect x="323" y="116" width="9" height="14" rx="3" fill="#ff3cac" opacity="0.08"/><rect x="335" y="116" width="9" height="14" rx="3" fill="#ff3cac" opacity="0.58"/><rect x="347" y="116" width="9" height="14" rx="3" fill="#ff3cac" opacity="0.38"/><rect x="359" y="116" width="9" height="14" rx="3" fill="#ff3cac" opacity="0.08"/><rect x="371" y="116" width="9" height="14" rx="3" fill="#ff3cac" opacity="0.08"/><rect x="383" y="116" width="9" height="14" rx="3" fill="#ff3cac" opacity="0.08"/><rect x="395" y="116" width="9" height="14" rx="3" fill="#ff3cac" opacity="0.08"/><rect x="407" y="116" width="9" height="14" rx="3" fill="#ff3cac" opacity="0.82"/><rect x="419" y="116" width="9" height="14" rx="3" fill="#ff3cac" opacity="0.58"/><rect x="431" y="116" width="9" height="14" rx="3" fill="#ff3cac" opacity="0.22"/><rect x="443" y="116" width="9" height="14" rx="3" fill="#ff3cac" opacity="0.08"/><rect x="455" y="116" width="9" height="14" rx="3" fill="#ff3cac" opacity="0.08"/><rect x="467" y="116" width="9" height="14" rx="3" fill="#ff3cac" opacity="0.08"/><rect x="479" y="116" width="9" height="14" rx="3" fill="#ff3cac" opacity="0.08"/><rect x="491" y="116" width="9" height="14" rx="3" fill="#ff3cac" opacity="0.22"/><rect x="503" y="116" width="9" height="14" rx="3" fill="#ff3cac" opacity="0.22"/><rect x="515" y="116" width="9" height="14" rx="3" fill="#ff3cac" opacity="0.08"/><rect x="527" y="116" width="9" height="14" rx="3" fill="#ff3cac" opacity="0.38"/><rect x="539" y="116" width="9" height="14" rx="3" fill="#ff3cac" opacity="0.38"/><rect x="551" y="116" width="9" height="14" rx="3" fill="#ff3cac" opacity="0.38"/><rect x="563" y="116" width="9" height="14" rx="3" fill="#ff3cac" opacity="0.08"/><rect x="575" y="116" width="9" height="14" rx="3" fill="#ff3cac" opacity="0.22"/><rect x="587" y="116" width="9" height="14" rx="3" fill="#ff3cac" opacity="0.22"/><rect x="599" y="116" width="9" height="14" rx="3" fill="#ff3cac" opacity="0.22"/><rect x="611" y="116" width="9" height="14" rx="3" fill="#ff3cac" opacity="0.22"/><rect x="623" y="116" width="9" height="14" rx="3" fill="#ff3cac" opacity="0.08"/><rect x="635" y="116" width="9" height="14" rx="3" fill="#ff3cac" opacity="0.08"/><rect x="647" y="116" width="9" height="14" rx="3" fill="#ff3cac" opacity="0.08"/><rect x="35" y="134" width="9" height="14" rx="3" fill="#ff3cac" opacity="0.08"/><rect x="47" y="134" width="9" height="14" rx="3" fill="#ff3cac" opacity="0.08"/><rect x="59" y="134" width="9" height="14" rx="3" fill="#ff3cac" opacity="0.38"/><rect x="71" y="134" width="9" height="14" rx="3" fill="#ff3cac" opacity="0.08"/><rect x="83" y="134" width="9" height="14" rx="3" fill="#ff3cac" opacity="0.08"/><rect x="95" y="134" width="9" height="14" rx="3" fill="#ff3cac" opacity="0.08"/><rect x="107" y="134" width="9" height="14" rx="3" fill="#ff3cac" opacity="0.22"/><rect x="119" y="134" width="9" height="14" rx="3" fill="#ff3cac" opacity="0.08"/><rect x="131" y="134" width="9" height="14" rx="3" fill="#ff3cac" opacity="0.38"/><rect x="143" y="134" width="9" height="14" rx="3" fill="#ff3cac" opacity="0.22"/><rect x="155" y="134" width="9" height="14" rx="3" fill="#ff3cac" opacity="0.22"/><rect x="167" y="134" width="9" height="14" rx="3" fill="#ff3cac" opacity="0.82"/><rect x="179" y="134" width="9" height="14" rx="3" fill="#ff3cac" opacity="0.82"/><rect x="191" y="134" width="9" height="14" rx="3" fill="#ff3cac" opacity="0.08"/><rect x="203" y="134" width="9" height="14" rx="3" fill="#ff3cac" opacity="0.08"/><rect x="215" y="134" width="9" height="14" rx="3" fill="#ff3cac" opacity="0.08"/><rect x="227" y="134" width="9" height="14" rx="3" fill="#ff3cac" opacity="0.22"/><rect x="239" y="134" width="9" height="14" rx="3" fill="#ff3cac" opacity="0.22"/><rect x="251" y="134" width="9" height="14" rx="3" fill="#ff3cac" opacity="0.38"/><rect x="263" y="134" width="9" height="14" rx="3" fill="#ff3cac" opacity="0.22"/><rect x="275" y="134" width="9" height="14" rx="3" fill="#ff3cac" opacity="0.82"/><rect x="287" y="134" width="9" height="14" rx="3" fill="#ff3cac" opacity="0.08"/><rect x="299" y="134" width="9" height="14" rx="3" fill="#ff3cac" opacity="0.08"/><rect x="311" y="134" width="9" height="14" rx="3" fill="#ff3cac" opacity="0.08"/><rect x="323" y="134" width="9" height="14" rx="3" fill="#ff3cac" opacity="0.08"/><rect x="335" y="134" width="9" height="14" rx="3" fill="#ff3cac" opacity="0.08"/><rect x="347" y="134" width="9" height="14" rx="3" fill="#ff3cac" opacity="0.08"/><rect x="359" y="134" width="9" height="14" rx="3" fill="#ff3cac" opacity="0.22"/><rect x="371" y="134" width="9" height="14" rx="3" fill="#ff3cac" opacity="0.08"/><rect x="383" y="134" width="9" height="14" rx="3" fill="#ff3cac" opacity="0.08"/><rect x="395" y="134" width="9" height="14" rx="3" fill="#ff3cac" opacity="0.58"/><rect x="407" y="134" width="9" height="14" rx="3" fill="#ff3cac" opacity="0.08"/><rect x="419" y="134" width="9" height="14" rx="3" fill="#ff3cac" opacity="0.58"/><rect x="431" y="134" width="9" height="14" rx="3" fill="#ff3cac" opacity="0.08"/><rect x="443" y="134" width="9" height="14" rx="3" fill="#ff3cac" opacity="0.22"/><rect x="455" y="134" width="9" height="14" rx="3" fill="#ff3cac" opacity="0.08"/><rect x="467" y="134" width="9" height="14" rx="3" fill="#ff3cac" opacity="0.22"/><rect x="479" y="134" width="9" height="14" rx="3" fill="#ff3cac" opacity="0.08"/><rect x="491" y="134" width="9" height="14" rx="3" fill="#ff3cac" opacity="0.08"/><rect x="503" y="134" width="9" height="14" rx="3" fill="#ff3cac" opacity="0.08"/><rect x="515" y="134" width="9" height="14" rx="3" fill="#ff3cac" opacity="0.38"/><rect x="527" y="134" width="9" height="14" rx="3" fill="#ff3cac" opacity="0.58"/><rect x="539" y="134" width="9" height="14" rx="3" fill="#ff3cac" opacity="0.08"/><rect x="551" y="134" width="9" height="14" rx="3" fill="#ff3cac" opacity="0.08"/><rect x="563" y="134" width="9" height="14" rx="3" fill="#ff3cac" opacity="0.08"/><rect x="575" y="134" width="9" height="14" rx="3" fill="#ff3cac" opacity="0.58"/><rect x="587" y="134" width="9" height="14" rx="3" fill="#ff3cac" opacity="0.82"/><rect x="599" y="134" width="9" height="14" rx="3" fill="#ff3cac" opacity="0.22"/><rect x="611" y="134" width="9" height="14" rx="3" fill="#ff3cac" opacity="0.22"/><rect x="623" y="134" width="9" height="14" rx="3" fill="#ff3cac" opacity="0.08"/><rect x="635" y="134" width="9" height="14" rx="3" fill="#ff3cac" opacity="0.08"/><rect x="647" y="134" width="9" height="14" rx="3" fill="#ff3cac" opacity="0.08"/><rect x="35" y="152" width="9" height="14" rx="3" fill="#ff3cac" opacity="0.08"/><rect x="47" y="152" width="9" height="14" rx="3" fill="#ff3cac" opacity="0.08"/><rect x="59" y="152" width="9" height="14" rx="3" fill="#ff3cac" opacity="0.22"/><rect x="71" y="152" width="9" height="14" rx="3" fill="#ff3cac" opacity="0.08"/><rect x="83" y="152" width="9" height="14" rx="3" fill="#ff3cac" opacity="0.58"/><rect x="95" y="152" width="9" height="14" rx="3" fill="#ff3cac" opacity="0.08"/><rect x="107" y="152" width="9" height="14" rx="3" fill="#ff3cac" opacity="0.38"/><rect x="119" y="152" width="9" height="14" rx="3" fill="#ff3cac" opacity="0.08"/><rect x="131" y="152" width="9" height="14" rx="3" fill="#ff3cac" opacity="0.08"/><rect x="143" y="152" width="9" height="14" rx="3" fill="#ff3cac" opacity="0.08"/><rect x="155" y="152" width="9" height="14" rx="3" fill="#ff3cac" opacity="0.08"/><rect x="167" y="152" width="9" height="14" rx="3" fill="#ff3cac" opacity="0.38"/><rect x="179" y="152" width="9" height="14" rx="3" fill="#ff3cac" opacity="0.22"/><rect x="191" y="152" width="9" height="14" rx="3" fill="#ff3cac" opacity="0.08"/><rect x="203" y="152" width="9" height="14" rx="3" fill="#ff3cac" opacity="0.08"/><rect x="215" y="152" width="9" height="14" rx="3" fill="#ff3cac" opacity="0.58"/><rect x="227" y="152" width="9" height="14" rx="3" fill="#ff3cac" opacity="0.38"/><rect x="239" y="152" width="9" height="14" rx="3" fill="#ff3cac" opacity="0.08"/><rect x="251" y="152" width="9" height="14" rx="3" fill="#ff3cac" opacity="0.38"/><rect x="263" y="152" width="9" height="14" rx="3" fill="#ff3cac" opacity="0.08"/><rect x="275" y="152" width="9" height="14" rx="3" fill="#ff3cac" opacity="0.08"/><rect x="287" y="152" width="9" height="14" rx="3" fill="#ff3cac" opacity="0.08"/><rect x="299" y="152" width="9" height="14" rx="3" fill="#ff3cac" opacity="0.82"/><rect x="311" y="152" width="9" height="14" rx="3" fill="#ff3cac" opacity="0.08"/><rect x="323" y="152" width="9" height="14" rx="3" fill="#ff3cac" opacity="0.38"/><rect x="335" y="152" width="9" height="14" rx="3" fill="#ff3cac" opacity="0.38"/><rect x="347" y="152" width="9" height="14" rx="3" fill="#ff3cac" opacity="0.08"/><rect x="359" y="152" width="9" height="14" rx="3" fill="#ff3cac" opacity="0.08"/><rect x="371" y="152" width="9" height="14" rx="3" fill="#ff3cac" opacity="0.08"/><rect x="383" y="152" width="9" height="14" rx="3" fill="#ff3cac" opacity="0.58"/><rect x="395" y="152" width="9" height="14" rx="3" fill="#ff3cac" opacity="0.08"/><rect x="407" y="152" width="9" height="14" rx="3" fill="#ff3cac" opacity="0.08"/><rect x="419" y="152" width="9" height="14" rx="3" fill="#ff3cac" opacity="0.08"/><rect x="431" y="152" width="9" height="14" rx="3" fill="#ff3cac" opacity="0.22"/><rect x="443" y="152" width="9" height="14" rx="3" fill="#ff3cac" opacity="0.08"/><rect x="455" y="152" width="9" height="14" rx="3" fill="#ff3cac" opacity="0.08"/><rect x="467" y="152" width="9" height="14" rx="3" fill="#ff3cac" opacity="0.58"/><rect x="479" y="152" width="9" height="14" rx="3" fill="#ff3cac" opacity="0.38"/><rect x="491" y="152" width="9" height="14" rx="3" fill="#ff3cac" opacity="0.82"/><rect x="503" y="152" width="9" height="14" rx="3" fill="#ff3cac" opacity="0.22"/><rect x="515" y="152" width="9" height="14" rx="3" fill="#ff3cac" opacity="0.08"/><rect x="527" y="152" width="9" height="14" rx="3" fill="#ff3cac" opacity="0.08"/><rect x="539" y="152" width="9" height="14" rx="3" fill="#ff3cac" opacity="0.82"/><rect x="551" y="152" width="9" height="14" rx="3" fill="#ff3cac" opacity="0.38"/><rect x="563" y="152" width="9" height="14" rx="3" fill="#ff3cac" opacity="0.38"/><rect x="575" y="152" width="9" height="14" rx="3" fill="#ff3cac" opacity="0.58"/><rect x="587" y="152" width="9" height="14" rx="3" fill="#ff3cac" opacity="0.08"/><rect x="599" y="152" width="9" height="14" rx="3" fill="#ff3cac" opacity="0.38"/><rect x="611" y="152" width="9" height="14" rx="3" fill="#ff3cac" opacity="0.08"/><rect x="623" y="152" width="9" height="14" rx="3" fill="#ff3cac" opacity="0.08"/><rect x="635" y="152" width="9" height="14" rx="3" fill="#ff3cac" opacity="0.58"/><rect x="647" y="152" width="9" height="14" rx="3" fill="#ff3cac" opacity="0.38"/><rect x="35" y="170" width="9" height="14" rx="3" fill="#ff3cac" opacity="0.38"/><rect x="47" y="170" width="9" height="14" rx="3" fill="#ff3cac" opacity="0.58"/><rect x="59" y="170" width="9" height="14" rx="3" fill="#ff3cac" opacity="0.82"/><rect x="71" y="170" width="9" height="14" rx="3" fill="#ff3cac" opacity="0.08"/><rect x="83" y="170" width="9" height="14" rx="3" fill="#ff3cac" opacity="0.08"/><rect x="95" y="170" width="9" height="14" rx="3" fill="#ff3cac" opacity="0.08"/><rect x="107" y="170" width="9" height="14" rx="3" fill="#ff3cac" opacity="0.08"/><rect x="119" y="170" width="9" height="14" rx="3" fill="#ff3cac" opacity="0.08"/><rect x="131" y="170" width="9" height="14" rx="3" fill="#ff3cac" opacity="0.08"/><rect x="143" y="170" width="9" height="14" rx="3" fill="#ff3cac" opacity="0.38"/><rect x="155" y="170" width="9" height="14" rx="3" fill="#ff3cac" opacity="0.08"/><rect x="167" y="170" width="9" height="14" rx="3" fill="#ff3cac" opacity="0.08"/><rect x="179" y="170" width="9" height="14" rx="3" fill="#ff3cac" opacity="0.58"/><rect x="191" y="170" width="9" height="14" rx="3" fill="#ff3cac" opacity="0.08"/><rect x="203" y="170" width="9" height="14" rx="3" fill="#ff3cac" opacity="0.38"/><rect x="215" y="170" width="9" height="14" rx="3" fill="#ff3cac" opacity="0.08"/><rect x="227" y="170" width="9" height="14" rx="3" fill="#ff3cac" opacity="0.08"/><rect x="239" y="170" width="9" height="14" rx="3" fill="#ff3cac" opacity="0.22"/><rect x="251" y="170" width="9" height="14" rx="3" fill="#ff3cac" opacity="0.82"/><rect x="263" y="170" width="9" height="14" rx="3" fill="#ff3cac" opacity="0.08"/><rect x="275" y="170" width="9" height="14" rx="3" fill="#ff3cac" opacity="0.08"/><rect x="287" y="170" width="9" height="14" rx="3" fill="#ff3cac" opacity="0.08"/><rect x="299" y="170" width="9" height="14" rx="3" fill="#ff3cac" opacity="0.08"/><rect x="311" y="170" width="9" height="14" rx="3" fill="#ff3cac" opacity="0.08"/><rect x="323" y="170" width="9" height="14" rx="3" fill="#ff3cac" opacity="0.38"/><rect x="335" y="170" width="9" height="14" rx="3" fill="#ff3cac" opacity="0.08"/><rect x="347" y="170" width="9" height="14" rx="3" fill="#ff3cac" opacity="0.08"/><rect x="359" y="170" width="9" height="14" rx="3" fill="#ff3cac" opacity="0.08"/><rect x="371" y="170" width="9" height="14" rx="3" fill="#ff3cac" opacity="0.38"/><rect x="383" y="170" width="9" height="14" rx="3" fill="#ff3cac" opacity="0.22"/><rect x="395" y="170" width="9" height="14" rx="3" fill="#ff3cac" opacity="0.38"/><rect x="407" y="170" width="9" height="14" rx="3" fill="#ff3cac" opacity="0.82"/><rect x="419" y="170" width="9" height="14" rx="3" fill="#ff3cac" opacity="0.08"/><rect x="431" y="170" width="9" height="14" rx="3" fill="#ff3cac" opacity="0.08"/><rect x="443" y="170" width="9" height="14" rx="3" fill="#ff3cac" opacity="0.08"/><rect x="455" y="170" width="9" height="14" rx="3" fill="#ff3cac" opacity="0.22"/><rect x="467" y="170" width="9" height="14" rx="3" fill="#ff3cac" opacity="0.38"/><rect x="479" y="170" width="9" height="14" rx="3" fill="#ff3cac" opacity="0.08"/><rect x="491" y="170" width="9" height="14" rx="3" fill="#ff3cac" opacity="0.38"/><rect x="503" y="170" width="9" height="14" rx="3" fill="#ff3cac" opacity="0.08"/><rect x="515" y="170" width="9" height="14" rx="3" fill="#ff3cac" opacity="0.08"/><rect x="527" y="170" width="9" height="14" rx="3" fill="#ff3cac" opacity="0.58"/><rect x="539" y="170" width="9" height="14" rx="3" fill="#ff3cac" opacity="0.08"/><rect x="551" y="170" width="9" height="14" rx="3" fill="#ff3cac" opacity="0.38"/><rect x="563" y="170" width="9" height="14" rx="3" fill="#ff3cac" opacity="0.82"/><rect x="575" y="170" width="9" height="14" rx="3" fill="#ff3cac" opacity="0.38"/><rect x="587" y="170" width="9" height="14" rx="3" fill="#ff3cac" opacity="0.08"/><rect x="599" y="170" width="9" height="14" rx="3" fill="#ff3cac" opacity="0.08"/><rect x="611" y="170" width="9" height="14" rx="3" fill="#ff3cac" opacity="0.08"/><rect x="623" y="170" width="9" height="14" rx="3" fill="#ff3cac" opacity="0.08"/><rect x="635" y="170" width="9" height="14" rx="3" fill="#ff3cac" opacity="0.58"/><rect x="647" y="170" width="9" height="14" rx="3" fill="#ff3cac" opacity="0.08"/><rect x="35" y="188" width="9" height="14" rx="3" fill="#ff3cac" opacity="0.08"/><rect x="47" y="188" width="9" height="14" rx="3" fill="#ff3cac" opacity="0.38"/><rect x="59" y="188" width="9" height="14" rx="3" fill="#ff3cac" opacity="0.22"/><rect x="71" y="188" width="9" height="14" rx="3" fill="#ff3cac" opacity="0.08"/><rect x="83" y="188" width="9" height="14" rx="3" fill="#ff3cac" opacity="0.08"/><rect x="95" y="188" width="9" height="14" rx="3" fill="#ff3cac" opacity="0.38"/><rect x="107" y="188" width="9" height="14" rx="3" fill="#ff3cac" opacity="0.38"/><rect x="119" y="188" width="9" height="14" rx="3" fill="#ff3cac" opacity="0.58"/><rect x="131" y="188" width="9" height="14" rx="3" fill="#ff3cac" opacity="0.58"/><rect x="143" y="188" width="9" height="14" rx="3" fill="#ff3cac" opacity="0.38"/><rect x="155" y="188" width="9" height="14" rx="3" fill="#ff3cac" opacity="0.08"/><rect x="167" y="188" width="9" height="14" rx="3" fill="#ff3cac" opacity="0.58"/><rect x="179" y="188" width="9" height="14" rx="3" fill="#ff3cac" opacity="0.82"/><rect x="191" y="188" width="9" height="14" rx="3" fill="#ff3cac" opacity="0.08"/><rect x="203" y="188" width="9" height="14" rx="3" fill="#ff3cac" opacity="0.08"/><rect x="215" y="188" width="9" height="14" rx="3" fill="#ff3cac" opacity="0.22"/><rect x="227" y="188" width="9" height="14" rx="3" fill="#ff3cac" opacity="0.82"/><rect x="239" y="188" width="9" height="14" rx="3" fill="#ff3cac" opacity="0.08"/><rect x="251" y="188" width="9" height="14" rx="3" fill="#ff3cac" opacity="0.08"/><rect x="263" y="188" width="9" height="14" rx="3" fill="#ff3cac" opacity="0.22"/><rect x="275" y="188" width="9" height="14" rx="3" fill="#ff3cac" opacity="0.82"/><rect x="287" y="188" width="9" height="14" rx="3" fill="#ff3cac" opacity="0.22"/><rect x="299" y="188" width="9" height="14" rx="3" fill="#ff3cac" opacity="0.58"/><rect x="311" y="188" width="9" height="14" rx="3" fill="#ff3cac" opacity="0.08"/><rect x="323" y="188" width="9" height="14" rx="3" fill="#ff3cac" opacity="0.08"/><rect x="335" y="188" width="9" height="14" rx="3" fill="#ff3cac" opacity="0.08"/><rect x="347" y="188" width="9" height="14" rx="3" fill="#ff3cac" opacity="0.08"/><rect x="359" y="188" width="9" height="14" rx="3" fill="#ff3cac" opacity="0.82"/><rect x="371" y="188" width="9" height="14" rx="3" fill="#ff3cac" opacity="0.58"/><rect x="383" y="188" width="9" height="14" rx="3" fill="#ff3cac" opacity="0.08"/><rect x="395" y="188" width="9" height="14" rx="3" fill="#ff3cac" opacity="0.22"/><rect x="407" y="188" width="9" height="14" rx="3" fill="#ff3cac" opacity="0.22"/><rect x="419" y="188" width="9" height="14" rx="3" fill="#ff3cac" opacity="0.08"/><rect x="431" y="188" width="9" height="14" rx="3" fill="#ff3cac" opacity="0.08"/><rect x="443" y="188" width="9" height="14" rx="3" fill="#ff3cac" opacity="0.38"/><rect x="455" y="188" width="9" height="14" rx="3" fill="#ff3cac" opacity="0.08"/><rect x="467" y="188" width="9" height="14" rx="3" fill="#ff3cac" opacity="0.08"/><rect x="479" y="188" width="9" height="14" rx="3" fill="#ff3cac" opacity="0.58"/><rect x="491" y="188" width="9" height="14" rx="3" fill="#ff3cac" opacity="0.08"/><rect x="503" y="188" width="9" height="14" rx="3" fill="#ff3cac" opacity="0.08"/><rect x="515" y="188" width="9" height="14" rx="3" fill="#ff3cac" opacity="0.08"/><rect x="527" y="188" width="9" height="14" rx="3" fill="#ff3cac" opacity="0.38"/><rect x="539" y="188" width="9" height="14" rx="3" fill="#ff3cac" opacity="0.58"/><rect x="551" y="188" width="9" height="14" rx="3" fill="#ff3cac" opacity="0.22"/><rect x="563" y="188" width="9" height="14" rx="3" fill="#ff3cac" opacity="0.38"/><rect x="575" y="188" width="9" height="14" rx="3" fill="#ff3cac" opacity="0.08"/><rect x="587" y="188" width="9" height="14" rx="3" fill="#ff3cac" opacity="0.08"/><rect x="599" y="188" width="9" height="14" rx="3" fill="#ff3cac" opacity="0.38"/><rect x="611" y="188" width="9" height="14" rx="3" fill="#ff3cac" opacity="0.22"/><rect x="623" y="188" width="9" height="14" rx="3" fill="#ff3cac" opacity="0.08"/><rect x="635" y="188" width="9" height="14" rx="3" fill="#ff3cac" opacity="0.22"/><rect x="647" y="188" width="9" height="14" rx="3" fill="#ff3cac" opacity="0.08"/><text x="35" y="225" class="m">Less</text><rect x="68" y="216" width="10" height="10" rx="2" fill="#ff3cac" opacity=".08"/><rect x="84" y="216" width="10" height="10" rx="2" fill="#ff3cac" opacity=".22"/><rect x="100" y="216" width="10" height="10" rx="2" fill="#ff3cac" opacity=".38"/><rect x="116" y="216" width="10" height="10" rx="2" fill="#ff3cac" opacity=".58"/><rect x="132" y="216" width="10" height="10" rx="2" fill="#ff3cac" opacity=".82"/><text x="150" y="225" class="m">More</text></svg>